<?xml version="1.0" encoding="utf-8"?>
<!-- Generator: Adobe Illustrator 26.0.1, SVG Export Plug-In . SVG Version: 6.00 Build 0)  -->
<svg version="1.1" id="Layer_1" xmlns="http://www.w3.org/2000/svg" xmlns:xlink="http://www.w3.org/1999/xlink" x="0px" y="0px"
	 viewBox="0 0 151.9 226.9" style="enable-background:new 0 0 151.9 226.9;" xml:space="preserve">
<style type="text/css">
	.st0{fill:#141413;}
	.st1{fill:#292660;}
	.st2{fill:#FFFFFF;}
</style>
<g id="Layer_2_00000180343304241329361090000003464347516956377007_">
	<g id="Design_2">
		<g id="Basic_structure">
			<g id="_2.1">
				<g id="heading">
					<path class="st0" d="M151.9,209.9h-0.4h-15.4c-0.5,0-0.6-0.2-0.6-0.6s0.2-0.6,0.6-0.5c1,0.1,2.1,0,3-0.5
						c1.1-0.6,1.8-1.9,1.7-3.2c0-4.6,0-9.3,0-13.9c0-4.1-0.1-8.2-0.1-12.4c0-0.2,0-0.4-0.1-0.5c-0.5,1.2-1.1,2.3-1.6,3.5
						c-4.2,9.1-8.4,18.3-12.6,27.4c-0.2,0.4-0.4,0.8-0.9,0.7s-0.7-0.4-0.9-0.8c-4.2-9.2-8.5-18.4-12.7-27.7
						c-0.5-1.1-1.1-2.2-1.7-3.2v24.8c0,1,0.1,1.9,0.2,2.9c0.1,1.5,1.3,2.7,2.8,2.8c0.6,0.1,1.1,0.1,1.7,0.1c0.4,0,0.8-0.1,0.8,0.5
						s-0.4,0.5-0.8,0.5H106c-1.1,0-2.2,0-3.3,0c-0.4,0-0.7-0.1-0.7-0.6s0.3-0.6,0.7-0.5c0.9,0.1,1.8-0.1,2.6-0.4
						c1.2-0.4,2-1.4,2.1-2.7c0.2-2,0.2-4.1,0.2-6.1c0-7.5,0-14.9,0-22.4c0-0.6-0.1-1.3-0.2-1.9c-0.3-1.7-1.8-3-3.6-3
						c-0.4-0.1-0.8-0.1-1.2,0c-0.4,0.1-0.6-0.2-0.6-0.6s0.1-0.6,0.6-0.6c3.1,0,6.2,0,9.3,0c0.8-0.1,1.5,0.4,1.7,1.1
						c4.3,9.5,8.7,18.9,13.1,28.3l0.3,0.7c0.4-0.8,0.7-1.5,1-2.2l12.4-27.1c0.1-0.5,0.6-0.8,1.1-0.8c3.4,0.1,6.7,0.1,10.1,0.1h0.2
						v0.9c-0.4,0-0.8,0-1.3,0c-2.8,0.1-4.1,1.3-4.1,4.1v28.1c0,0.3,0,0.7,0,1c-0.1,1.6,1.1,2.9,2.6,3.1c0.9,0.1,1.8,0.2,2.7,0.2
						L151.9,209.9z"/>
					<path class="st0" d="M61,226.9c-0.4-0.2-0.8-0.3-1.3-0.3c-2.7-0.6-4.7-2.8-5.1-5.5c-0.9-4.1,1.6-8.1,5.7-9.1
						c1.5-0.3,3.1-0.2,4.5,0.4l0.3,0.1c1.1,0.4,1.2,0.4,1.8-0.7c0.3,1.3,0.4,2.7,0.5,4.1c0,0.2,0.1,0.5-0.2,0.6s-0.3-0.2-0.4-0.4
						c-0.5-1.9-2.3-3.2-4.3-3.2c-2.1-0.2-4.1,1.1-4.8,3.1c-1.1,2.5-0.9,5.3,0.5,7.6c1.3,2.2,4,3.2,6.4,2.2c0.5-0.1,0.8-0.5,0.8-1
						c0-1.2,0-2.4,0-3.6c0.1-0.9-0.5-1.8-1.4-1.9c-0.2-0.1-0.4-0.2-0.8-0.3h5.9c-1.3,0.4-1.4,1.4-1.4,2.4s0,2.4,0,3.5
						c0.1,0.7-0.4,1.3-1.1,1.5c-0.8,0.3-1.7,0.5-2.5,0.7L61,226.9z"/>
					<path class="st1" d="M43.6,86.5c0.3-0.8,0.3-1.6,0-2.3c-1.6-6.4-2.7-13-3.6-19.5c-0.8-5.8-1.2-11.7-1.4-17.5
						c-0.2-4.9-0.1-9.8-0.1-14.6c-0.1-1.7,0.9-3.3,2.4-3.9c6.4-3,13.1-5.2,20-6.6c6-1.2,12.1-1.8,18.2-2c1,0,1.9-0.1,2.9-0.1
						s1.4,0.4,1.4,1.3c0,0.5,0,1,0,1.5c0,0.9,0.2,1,1.1,1.1c4.1,0.5,8.2,0.9,12.2,1.4c6.6,0.7,13.1,2.5,19.2,5.1
						c1.7,0.8,3.4,1.4,5.1,2.1c1.1,0.3,1.9,1.4,1.8,2.6c0,8.8,0,17.5,0,26.3c0,0.8-0.2,1-1.1,1h-38c-0.9,0-0.9,0-0.9,0.9
						c0,0.3,0,0.6-0.1,0.9c-0.1,1,0.3,1.5,1.4,1.5c0.2,0,0.4,0,0.5,0c0.8-0.1,1.5-0.1,2.3-0.1h34.2c1.1,0,1.3,0.2,1.2,1.3
						c-1.5,9.5-2.7,19-5.6,28.3c-0.7,2.1-1.3,4.2-2,6.2c-0.4,1.5-1.9,2.5-3.4,2.1c-0.1,0-0.2-0.1-0.3-0.1
						c-8.7-2.2-17.3-4.8-25.9-7.1c-0.4-0.1-0.8-0.3-1.3-0.3c-0.6,0-1.1-0.6-1-1.2c0,0,0-0.1,0-0.1c0-3.8,0-7.6,0-11.3V67.7
						c0-1-0.1-1.1-1.1-1.1c-12.6,0-25.1,0-37.7,0c-0.5,0-0.6,0-0.5,0.6c2.3,9.3,4.6,18.6,6.9,27.8c0.3,1.1,0.2,1.2-0.9,1.4l-0.5,0.1
						c-1.1,0.2-1.5,0-2-1s-0.8-1.8-1.3-2.7c-0.8,1.6-1.8,3.1-2.9,4.5c-2.2,2.6-5.4,4.2-8.8,4.3c-0.8-0.1-1.5-0.6-1.8-1.3
						c-0.1-0.3,0.1-0.3,0.2-0.4c2.2-1.2,4.4-2.5,6.6-3.7c0.8-0.4,0.8-0.6,0.1-1.1c-0.4-0.3-0.9-0.6-1.4-0.8c-2.2-1-4.4-2-6.6-3
						c-0.4-0.2-0.6-0.4-0.4-0.8s0.5-0.4,0.9-0.4c1.4,0.3,2.9,0.6,4.3,0.9c0.3,0.1,0.5,0.1,0.4-0.3s0.2-0.6,0.6-0.7
						c0.7-0.1,0.7-0.6,0.6-1.1c-0.6-3.1-1.3-6.2-1.9-9.3c-0.1-0.3,0.1-0.7,0.4-0.8c0.3-0.2,0.6-0.1,0.8,0.2c1.8,2.1,3.7,4,5.5,6.1
						C42.7,85.5,43.1,86,43.6,86.5 M62.9,62.4c6.4,0,12.8,0,19.3,0c0.5,0,0.7-0.1,0.7-0.7c0-11.7,0-23.4,0-35.2c0-0.3,0-0.5,0-0.8
						c-0.1-0.8-0.4-1.1-1.2-1.1s-1.5-0.1-2.3-0.1c-3.7,0-7.4,0.3-11.1,0.7c-6,0.7-11.9,1.9-17.6,3.7c-2.1,0.6-4.1,1.4-6,2.4
						c-1.2,0.6-2,1.7-2.3,3C42.1,35.2,42,36,42,36.7c-0.1,3.3,0,6.7,0.1,10c0.2,4.8,0.4,9.7,0.6,14.5c0,1,0.1,1,1,1L62.9,62.4
						 M107.8,46.5l-0.7-4c-0.6-3.6-1.2-7.2-1.8-10.7c-0.1-0.4-0.2-0.5-0.6-0.5c-0.4,0-0.8,0.3-0.8,0.8c0,0,0,0,0,0.1
						c-0.4,3.1-0.8,6.2-1.2,9.4c-0.2,1.5-0.4,2.9-0.6,4.4c0,0.3-0.1,0.5-0.4,0.5s-0.4-0.2-0.4-0.5s-0.1-0.7-0.2-1
						c-0.4-2.5-0.9-5-1.3-7.5c-0.1-0.3,0-0.7-0.5-0.8c-0.4-0.1-0.8,0.1-1,0.5c-0.3,0.8-0.6,1.5-0.8,2.3c-0.4,1.6-0.6,3.3-1,4.9
						c-0.1,1.4-1.4,2.4-2.8,2.3c0,0,0,0,0,0c-1,0-2-0.2-2.9-0.6c-1.1-0.3-2.3,0.2-2.8,1.2c0,0.1,0,0.2,0,0.3
						c0.1,0.9,0.8,1.5,1.7,1.6c1.7,0,3.5,0,5.2-0.2c1.4,0,2.6-1,2.9-2.3c0.3-0.8,0.6-1.6,1-2.3c0.4,2.2,0.8,4.1,1.2,6.1
						s0.8,4.2,1.2,6.3c0.1,0.4,0.2,0.8,0.8,0.8c0.8,0,0.7-0.5,0.8-1c0.2-1.6,0.5-3.2,0.6-4.8c0.3-2.6,0.8-5.2,1-7.8
						c0-0.2,0.1-0.3,0.3-0.4c0.2-0.1,0.5,0,0.6,0.2c0.1,0.2,0.2,0.4,0.2,0.6c0.5,2.6,1.2,5.1,1.5,7.8c0.1,0.4,0.2,0.8,0.7,0.8
						s0.6-0.4,0.7-0.8c0.2-0.9,0.4-1.8,0.8-2.7c0.3-1.2,0.9-1.5,2.1-1.1c1.7,0.5,3.5,1,5.3,1.3c1,0.2,2.1-0.1,2.8-0.8
						c0.3-0.2,0.4-0.7,0.2-1c-0.5-0.9-1.5-1.4-2.5-1.2c-0.8,0.1-1.6,0.4-2.4,0.6c-0.9,0.4-1.9,0-2.3-0.9c0-0.1-0.1-0.2-0.1-0.3
						c-0.3-0.7-0.6-1.4-0.8-2.1c-0.1-0.6-0.4-1.2-0.9-1.8C109.5,43.5,108.7,45,107.8,46.5 M103.6,71.9h-6.2c-0.5,0-1.1,0-1.6,0
						c-2.4,0.3-5,3.3-5.1,5.7c0,0.2,0.1,0.4,0.2,0.4c0.2,0.1,0.4,0,0.5-0.1c0.1-0.2,0.2-0.4,0.4-0.6c0.8-1.4,2.2-2.3,3.8-2.4
						c1.6-0.1,1.8,0.1,1.7,1.7c-0.3,4.2-1.3,8.1-3.9,11.5c-0.3,0.4-0.6,0.9-0.8,1.4c-0.5,1,0,2.3,1.1,2.7c0.3,0.1,0.6,0.2,0.8,0.2
						c1,0.1,1.9-0.4,2.4-1.2c0.3-0.5,0.5-1,0.7-1.5c1.1-4.3,1.6-8.7,1.6-13.2c0-1.2,0.3-1.5,1.5-1.5c0.6,0,1.1,0,1.7,0.1
						c1.9,0.1,1.8,0.1,1.6,2c-0.6,3.8-0.9,7.5-0.9,11.3c0,1.8,1.1,3.4,2.7,3.9c1.8,0.6,3.8-0.1,4.9-1.6c0.7-1.2,1.1-2.4,1.4-3.8
						c0.1-0.2-0.1-0.5-0.3-0.5c0,0,0,0-0.1,0c-0.3-0.1-0.4,0.1-0.5,0.3c0,0.1,0,0.2,0,0.3c-0.2,1.2-1.3,2.1-2.5,2
						c-1.3-0.1-2-0.7-2.2-2.2c-0.1-1.2-0.1-2.4-0.1-3.5c0-2.4,0.6-4.8,0.4-7.3c-0.1-0.5,0.2-0.9,0.7-1c0.1,0,0.2,0,0.3,0
						c0.7,0,1.4,0,2.1,0c2.2,0,2.2,0,2.2-2.2c0-0.8-0.1-0.9-1-0.9L103.6,71.9"/>
					<path class="st1" d="M39.6,126.5c-2.2,0.3-4.3-1.3-4.5-3.5c0,0,0-0.1,0-0.1c-0.2-1.7-0.2-3.5-0.2-5.2c0.1-2,0-4-0.3-6
						c-0.2-0.9-0.5-1.8-0.9-2.6c-0.7-1.2-0.5-2.7,0.5-3.6c2.2-2.5,4.9-4.4,8-5.5c3.5-1.3,7.1-2.1,10.7-2.6c4.7-0.7,9.4-1,14.2-0.8
						c14.2,0.5,28.2,3,41.7,7.4c3.9,1.3,7.7,2.7,11.5,4.1c2.6,1,5.5,1.2,8.3,0.7c2.1-0.4,3.8-1.8,4.5-3.8c0.1-0.3,0-0.8,0.6-0.6
						s0.9,0.4,0.8,1c0,0.1,0,0.2-0.1,0.3c-0.6,1.5-1.4,2.9-2.2,4.2c-0.4,0.5-0.9,1-1.4,1.5c-1.2,1.3-1.8,3.1-1.6,4.9
						c0.3,2.4-0.3,4.8-1.7,6.8c-1.2,1.9-3.1,2.2-5.1,1.8c-3.2-0.8-6.4-1.8-9.4-3.1c-7.2-2.8-14.7-5.1-22.2-6.9
						c-6.1-1.4-12.3-2.4-18.5-2.8c-4.1-0.3-8.2-0.4-12.2-0.3c-4.7-0.1-9.4,0.5-13.9,1.7c-2,0.5-3.9,1.3-5.6,2.3
						c-2.1,1.3-3.4,3.1-3.1,5.7c0.2,1.6,0.8,3.1,1.8,4.4C39.3,126,39.5,126.3,39.6,126.5"/>
					<path class="st1" d="M39.9,10.5c0.9-0.3,1.7-0.8,2.5-1.2c0.2-0.1,0.4-0.3,0.5-0.1s-0.1,0.3-0.2,0.5c-0.5,0.5-0.9,1.1-1.4,1.6
						c-0.1,0.1-0.3,0.2-0.2,0.4s0.3,0.2,0.4,0.2l11-0.1c0.3,0,0.7-0.1,0.8,0.4c0.1,0.4-0.1,0.8-0.5,0.9c-1.1,0.5-2.3,0.8-3.5,1.1
						c-2.7,0.5-5.4,0.8-8.1,0.9c-2.8,0-5.5,1.1-7.5,3l1.3-0.2l1.2-0.2c2.1-0.4,4.2-0.8,6.3-1.3c0.7-0.2,0.9,0.2,1.1,0.8
						s-0.1,0.8-0.5,1c-2.1,1-4.1,2.1-6.2,3.1c-1.6,0.8-3.4,1.4-5.2,1.7c-3.2,0.5-5.2,2.4-6.7,5.1c0.2,0,0.5-0.1,0.7-0.2l8.8-3.9
						c0.7-0.3,1-0.2,1.2,0.3c0.1,0.2,0.1,0.5-0.1,0.7c-3.5,2.9-6.7,6.2-10.9,8.2c-1,0.3-1.8,0.9-2.6,1.5c-0.5,0.5-0.9,1-1.1,1.6
						c-0.5,1.3-1,2.5-1.5,3.8c0,0.1,0,0.2,0,0.2h-0.1c0,0,0,0,0,0.1l0.1-0.1c1.8-1.2,3.5-2.6,5.3-3.9c1.3-1,2.6-1.8,3.8-2.9
						c0.6-0.5,1,0,1.4,0.3c0.4,0.2,0.5,0.7,0.3,1.1c0,0.1-0.1,0.1-0.2,0.2c-0.8,0.9-1.7,1.8-2.5,2.7c-2.8,3-5.7,6.1-8.5,9.2
						c-0.9,1-1.3,2.3-1.3,3.7c-0.1,1.6,0,3.1,0,4.9c1-1.5,1.9-2.8,2.8-4.2l4.2-6.5c0.2-0.3,0.4-0.7,1-0.4s0.7,0.6,0.5,1.2
						c-0.8,2.3-1.5,4.6-2,6.9c-0.5,2.4-1.6,4.7-3.2,6.6c-0.4,0.4-0.8,0.8-1.2,1.1c-0.8,0.5-1.1,1.4-0.8,2.3c0.4,1.9,1.1,3.6,2,5.3
						l0.4,0.8c0.3-4.5,2-8.8,4.8-12.2c0.2,2.3,0.4,4.5,0.5,6.7c0.2,3-0.2,6-1.4,8.8c-0.2,0.5-0.5,1-0.8,1.5c-0.4,0.7-0.4,1.6,0,2.3
						c1.1,1.7,2.1,3.4,3.3,5.2c0.2-0.9,0.3-1.8,0.3-2.7c0.2-2.7,0.4-5.3,0.6-8c0-0.7,0.2-1.3,0.2-2c0-0.3,0.2-0.5,0.4-0.5
						c0,0,0,0,0.1,0c0.3,0,0.7-0.1,0.8,0.3c0.9,3.1,2.7,5.9,3.6,9c0.7,2.3,0.8,4.7,0.2,7c-0.2,0.7-0.1,1.5,0.3,2.1
						c0.5,0.9,0.9,1.8,1.3,2.7c0.1,0.2,0.2,0.4,0.1,0.6c-1.1-0.8-2.5-1.1-3.8-0.7c-1.7,0.3-3.4,0.3-5.1,0.2c-0.5,0-1,0-1.5,0.1
						c0.7,0.4,1.3,0.8,2,1.1l9,4.6c1,0.5,1.1,0.8,0.2,1.7c-1.4,1.4-3.2,2.3-5.2,2.6c-3,0.6-6,0.7-9,0.4c1.3-0.9,2.5-1.7,3.7-2.4
						l1.1-0.7c0.3-0.2,0.4-0.5,0.2-0.8c-0.1-0.3-0.4-0.3-0.7-0.2c-3.2,0.4-6.5,0.6-9.7,0.7c-0.8,0-1.6,0-2.4,0.1
						c-0.5,0.1-0.9-0.3-1-0.7c0,0,0,0,0-0.1c-0.1-0.4,0.1-0.7,0.5-0.8c1.9-0.5,3.8-1,5.8-1.5c-0.3-0.4-0.7-0.8-1.1-1
						c-0.5-0.3-1-0.7-1.6-1c-0.1-0.1-0.3-0.2-0.2-0.4s0.2-0.1,0.3-0.2c1.2-0.2,1.2-0.2,0.6-1.3l-1.5-3c-0.1-0.2-0.2-0.5-0.2-0.8
						c0-0.3,0.2-0.5,0.5-0.6c0.2-0.1,0.4,0,0.6,0.2c2,2.1,4,4.3,6,6.4c0.4,0.4,0.6,0.9,1.2,1.1c-0.3-1.5-1-3-1.9-4.2
						c-1-1.2-2.2-2.4-3.5-3.3c-1.8-1.3-3.4-2.6-5-4.2c-0.3-0.2-0.5-0.6-0.4-1c0.1-0.6,0.3-0.6,0.9-0.4c1.2,0.4,2.5,0.7,3.7,1
						l8.3,2.1c0.3,0.1,0.5,0.1,0.8,0c-0.5-0.8-0.9-1.7-1.4-2.4s-1-1.4-1.5-2.1c-0.5-0.7-1.2-1.1-2-1.1c-4.3,0-7.4-2.1-10-5.2
						c-1.9-2.1-3.4-4.4-5-6.6c-0.2-0.3-0.3-0.6-0.1-0.9s0.6-0.2,0.9-0.1c3.5,1.8,7.1,3.6,10.7,5.4c0.2,0.1,0.4,0.1,0.7,0.3
						c-0.9-2.9-1.3-5.8-4.5-7.2c-2.7-1.2-4.9-3.4-6.1-6.1c-1.1-2.5-1.9-5.1-2.4-7.8c3.6,1.6,6.6,4.1,8.8,7.3
						c0.7-0.7,1.1-1.8,0.9-2.8c0-1.8-0.9-3.4-2.4-4.5c-3.4-2.7-4.3-6.3-4-10.4c0.1-1.6,0.3-3.3,0.8-4.8l6.5,9.5
						c0.4-1.2,0.8-2.4,1.2-3.5c0.1-0.4,0.2-0.7,0.3-1.1c0.3-0.7,0.1-1.5-0.5-2c-0.9-0.9-1.6-1.9-2.2-3.1c-0.9-1.8-1.1-3.9-0.7-5.8
						c0.7-2.6,1.6-5.2,2.8-7.6c1.2,3.5,2.3,6.8,3.5,10.2l4-5.5c-0.6-0.2-1.1-0.3-1.7-0.5c-1.2-0.4-1.9-1.6-1.6-2.9
						c0.4-1.9,1-3.7,2-5.3c0.9-1.7,1.8-3.3,2.7-5c0.3-0.5,0.6-0.8,1.1-0.6c0.5,0.1,0.8,0.6,0.7,1.1c-0.2,1.3-0.4,2.7-0.6,4
						c-0.2,1.4-0.4,2.9-0.4,4.3c1.1-0.6,2.1-1.3,3.1-2.1c0.6-0.4,1.1-0.9,1.7-1.3c0.5-0.3,0.8-0.9,0.7-1.4c-0.2-2.7,0.6-5.4,2.3-7.4
						c1.7-2,3.9-3.5,6.4-4.4c-0.8,2.6-1.6,5-2.4,7.5c0,0,0,0.1,0,0.1S39.9,10.6,39.9,10.5"/>
					<path class="st1" d="M57.6,145.6l-5.4,2c-0.5,0.2-1,0.4-1.6,0.5c-0.3,0.1-0.7,0.3-0.5,0.7s0.5,0.2,0.7,0.2
						c2.7-0.7,5.5-1.1,8.3-1.2c3.8,0.1,7.4,0.9,10.9,2.5c1.3,0.7,2.7,1.2,4.1,1.7l0.5,0.1c2.5,0.4,3.8-0.7,3.9-3.2
						c-0.1-1.9-0.5-3.8-1.2-5.6c-0.3-0.9-0.7-1.9-1.1-3c0.6,0.5,1.1,0.8,1.6,1.2c1.1,0.8,2.4,1.4,3.8,1.7c1.6,0.2,3.3-0.1,4.7-0.9
						c1.6-0.9,3.1-1.9,4.4-3.1c0.5-0.4,0.6-0.4,0.7,0.2c0.5,2.1-0.5,4.3-2.3,5.4c-1.1,0.6-2.3,1.1-3.4,1.6c-3,1.3-5.3,3.7-6.5,6.8
						c-0.6,1.6-2,2.2-3.9,1.7c-2.9-0.9-5.8-1.8-8.7-2.7c-2.8-1-5.7-1.7-8.7-2.1c-3.4-0.4-6.8-0.5-10,1.2c-2.7,1.4-4.8,3.7-6.1,6.6
						c-1.2,2.4-0.7,5.2,1.2,7c1.9,2,4.8,2.8,7.4,1.9c1.7-0.6,3.1-2,3.6-3.7c0.4-1.6-0.4-3.2-1.8-4c-0.2-0.1-0.5-0.2-0.8-0.1
						c-0.7,0.1-1.3,0.4-1.9,0.6c-0.2,0.1-0.5,0.2-0.5,0.5c0,0.3,0.2,0.6,0.5,0.7c0.8,0.3,1.7,0.6,2.5,0.9c0.5,0.1,0.8,0.6,0.9,1.1
						c0.1,0.2,0,0.4-0.2,0.5c0,0,0,0,0,0c-0.5,0.2-1,0.5-1.4,0.8c-0.5,0.3-1.2,0.4-1.8,0.1c-1.1-0.5-2-1.3-2.7-2.2
						c-1.2-1.9,0.5-4.2,2-4.5c1.5-0.3,3.1-0.2,4.5,0.4c1.9,0.8,2.6,2.4,2.6,4.3c0.1,4.4-2.9,7.3-7.3,7.2c-3.7-0.1-7.1-1.8-9.5-4.6
						c-1.5-1.9-2.2-4.3-1.9-6.7c0-3.7,2.2-7,5.5-8.6c1.2-0.6,2.4-1.2,3.7-1.8s2.7-1.3,4-1.8c0.6-0.2,0.5-0.4,0.1-0.7
						c-1-0.9-2.3-1.5-3.7-1.7c-2.9-0.4-5.9-0.3-8.8,0.3c-0.9,0.1-1.7,0.3-2.5,0.5c-0.6,0.2-0.5-0.1-0.4-0.4c0.2-0.8,0.6-1.6,1.1-2.2
						c2.4-3.2,5.9-5.4,9.9-6.1c2.6-0.3,5.2-0.1,7.7,0.5c4,0.9,7.8,2.4,11.8,3.7c1.5,0.5,3,1,4.6,1.4c1.3,0.4,1.8,0.2,2.4-1
						c0.2-0.4,0.4-0.7,0.6-1.1c0.1-0.3,0.4-0.4,0.7-0.3c0.3,0.1,0.4,0.3,0.4,0.6c0,0.4,0,0.9,0,1.3c-0.1,1.4-1.3,2.4-2.6,2.3
						c-0.2,0-0.3,0-0.5-0.1c-1.7-0.3-3.4-0.8-5.1-1.4c-3.3-1.2-6.7-2.2-10.2-3c-3.2-0.7-6.5-0.8-9.7-0.3c-1.5,0.2-2.7,1.1-4,1.7
						c-0.3,0.1-0.2,0.3-0.1,0.5s0.2,0.7,0.7,0.7c1,0,2,0,2.9,0.1c3.8,0.6,7.5,2.1,10.7,4.2L57.6,145.6"/>
					<path class="st1" d="M82.8,138.2v-22.3c0-1,0.2-1.1,1.1-0.9c6.2,1.5,12.4,2.8,18.7,4.2c0.9,0.2,0.9,0.3,0.4,1
						c-4.5,6.9-10.4,12.8-17.3,17.3c-1.1,0.7-1.9,1.8-2.2,3.1c-0.2,0.9-0.4,1-1.3,0.7c-2.3-0.7-4.5-1.8-6.4-3.3
						c-8.1-6-14.8-13.7-19.7-22.4c-0.2-0.4-0.4-0.8-0.6-1.2c-0.2-0.3,0-0.7,0.3-0.9c0.1,0,0.1-0.1,0.2-0.1c2.1-0.6,3.3-0.6,4.6,1.4
						c3.5,5.4,7.5,10.5,12.1,15.1c2.4,2.4,4.9,4.6,7.5,6.7C80.9,137.3,81.8,137.8,82.8,138.2"/>
					<path class="st0" d="M81.4,209.9H67.3c-0.4,0-0.6-0.1-0.6-0.6s0.2-0.6,0.6-0.5c1.1,0.1,2.2-0.1,3.2-0.6
						c0.9-0.4,1.5-1.2,1.6-2.2c0.1-1.5,0.2-3,0.2-4.4c0-7.5,0-15,0-22.5c0-1.3,0-2.5-0.2-3.8c-0.1-1.5-1.3-2.8-2.8-2.8
						c-0.6-0.1-1.2-0.1-1.9-0.1c-0.4,0-0.7,0-0.7-0.5s0.2-0.6,0.7-0.6h27.9c1.1,0,1.4,0.2,1.4,1.3c0.1,2.2,0.2,4.3,0.3,6.5
						c0,0.4,0.1,0.8-0.4,0.8s-0.8-0.1-0.9-0.6c-0.2-0.9-0.4-1.8-0.8-2.7c-0.6-1.7-2.1-2.9-3.9-3c-3.6-0.3-7.2-0.2-10.8-0.2h-1.5
						c-0.8,0-1,0.2-1,1c0,4.5,0,9,0,13.4c0,0.5,0.2,0.9,0.7,0.9c3.1,0,6.3,0.1,9.4-0.1c2.5-0.2,3.7-1.4,4.2-3.9
						c0.1-0.4,0.2-0.8,0.2-1.2s0.3-0.5,0.7-0.5s0.4,0.3,0.4,0.7c0,1.8,0,3.5,0,5.3c0,2.4,0,4.7,0,7.1c0,0.3-0.1,0.5-0.4,0.5
						s-0.7-0.1-0.8-0.6c-0.1-0.7-0.2-1.4-0.4-2.1c-0.4-1.9-2.1-3.2-4-3h-9.3c-0.4,0-0.7,0-0.7,0.6c0.1,4.1-0.1,8.2,0.1,12.3
						c0,0.8,0.1,1.6,0.2,2.4c0,0.8,0.6,1.4,1.4,1.4c0.9,0.1,1.9,0.2,2.9,0.1c2.8,0,5.6,0.1,8.4-0.1c2.2-0.2,4.1-1.3,5.3-3.1
						c0.9-1.2,1.6-2.4,2.3-3.7c0.2-0.5,0.6-0.8,1.1-0.8c0.5,0,0.6,0.2,0.4,0.6c-0.6,1.8-1.2,3.6-1.9,5.4c-0.3,0.9-0.6,1.9-0.9,2.8
						s-0.6,1-1.5,1L81.4,209.9z"/>
					<path class="st0" d="M24.2,176.9c0,2.1,0,4.2,0,6.3c0,0.3-0.1,0.6-0.4,0.6c0,0,0,0,0,0c-0.4,0.1-0.7,0-0.9-0.5
						c-0.2-1.2-0.5-2.4-0.9-3.5c-1.5-4.6-6-7.5-10.8-6.9c-2.5,0.2-4.7,2-5.5,4.4c-0.6,2.2,0.3,4.4,2.1,5.7c1.9,1.5,4,2.8,6.1,3.9
						c2.7,1.4,5.4,3,8,4.7c2.4,1.6,4.1,4.1,4.5,6.9c0.7,3.7-0.8,7.5-3.8,9.8c-3,2.4-6.5,3.1-10.2,2.7c-2.5-0.4-4.9-1.1-7.3-1.9
						c-1.6-0.5-2.5,0-2.7,1.4c-0.1,0.5-0.5,0.7-0.9,0.6s-0.4-0.5-0.4-0.8c0-1.7,0-3.4,0-5.1c0-2.3,0.1-4.7,0-7
						c0-0.2,0.1-0.5,0.4-0.5c0,0,0.1,0,0.1,0c0.4,0,0.7,0,0.8,0.5c0.2,1,0.5,2,0.8,2.9c1.2,4.4,4.3,6.7,8.7,7.5
						c2.1,0.4,4.2,0.2,6.2-0.7c3-1.4,4.2-4.9,2.9-7.9c-0.3-0.6-0.7-1.2-1.2-1.7c-1.4-1.3-3-2.4-4.7-3.3c-3-1.8-6.2-3.4-9-5.4
						c-2-1.3-3.6-3.1-4.5-5.2c-1.8-5.1,0.7-10.8,5.8-12.8c3.6-1.4,7.7-1.2,11.2,0.4c0.6,0.3,1.3,0.6,2,0.8c0.7,0.3,1.6,0,1.9-0.7
						c0,0,0,0,0,0c0.2-0.3,0.3-0.6,0.5-1s0.6-0.5,1-0.4s0.3,0.4,0.3,0.7c0,2,0,3.9,0,5.9L24.2,176.9z"/>
					<path class="st1" d="M140.4,66.9c0,0.7,0,1.2,0,1.7c0.1,1.1-0.6,2.1-1.7,2.2c-0.6,0.1-1.2-0.1-1.6-0.5c-1.2-0.8-2-2-2.1-3.5
						c-0.4-3.3,1.4-5.3,4.7-5.5c2.8-0.1,5.2,0.6,6.9,3c1,1.5,1.4,3.3,1.3,5c0.2,4-1.9,7.9-5.3,10c-1.8,1.2-3.6,2.3-5.3,3.5l-0.5,0.3
						c1.8,1.8,4.1,3,6.7,3.3c2,0.2,4,0,5.9-0.5c0.2,0,0.4-0.2,0.6,0s0,0.4-0.1,0.6c-1.3,3.8-4.9,6.4-8.9,6.6c-2.5,0-5-0.3-7.4-1
						c-2.1-0.5-4.3-0.5-6.4,0.2c-0.4,0.2-0.5,0.2-0.2,0.7c1.2,1.6,2.3,3.3,3.2,5c0.8,1.6,1.2,3.4,1.1,5.1c0,1-0.6,1.9-1.5,2.3
						c-1.7,0.6-3.4,1-5.2,1.2c-0.7,0.1-0.9-0.5-1-1c-0.7-2.6-1.4-5.1-2.2-7.7c-0.3-0.9-0.3-1.8,0.1-2.7c0.5-1.1,0.7-2.3,1.1-3.4
						c1-2.4,2.3-3.1,4.9-2.7s5.2,1.2,7.7,1.8c4,1,8.3,0.3,11.7-2.1c-0.9-0.2-1.8-0.4-2.7-0.4c-2.5-0.1-5-0.4-7.5-1
						c-1.9-0.6-3.6-1.7-4.8-3.2c-0.7-0.8-0.6-1.1,0.3-1.5l7.6-3.3c0.2-0.1,0.3-0.2,0.2-0.3s-0.2-0.2-0.4-0.2c-1.9,0-3.7,0-5.6,0.1
						c-1.3,0-2.6-0.1-3.8-0.2c-0.4,0-0.7-0.1-1.1-0.1c-1.3-0.2-2.4,0.7-2.6,2c0,0,0,0,0,0c-0.1,0.8-0.4,1.6-0.9,2.2
						c0-0.6,0-1.2,0.1-1.8c0.2-1.2,0.5-2.3,0.9-3.5c0.2-0.8,1-1.3,1.8-1.2c0.1,0,0.1,0,0.2,0.1c1.4,0.3,2.7,0.7,4.1,0.9
						c4.6,0.9,9.2-1.2,11.6-5.2c0.4-0.8,0.8-1.7,0.9-2.6c0.4-1.9-0.6-3.8-2.4-4.5c-0.9-0.4-1.8-0.7-2.8-0.9
						c-1.5-0.1-2.8,0.9-3.1,2.4c0,0.6,0.2,0.8,0.8,0.8C138.7,67.4,139.6,67.2,140.4,66.9"/>
					<path class="st0" d="M44.9,189.4c0-5,0-9.9,0-14.9c0-0.5-0.1-0.7-0.7-0.7c-1.7,0.1-3.5-0.2-5.2,0c-0.8,0-1.5,0.1-2.2,0.3
						c-2.3,0.6-3.3,2.4-3.9,4.5c-0.1,0.4-0.2,0.7-0.2,1.1c0,0.5-0.2,0.7-0.7,0.7s-0.6-0.3-0.6-0.7c0.2-2.6,0.3-5.3,0.5-7.9
						c0-0.4,0.2-0.6,0.7-0.6h29.8c1.2,0,1.4,0.2,1.4,1.4c0,2.4,0.1,4.7,0.2,7c0,0.3,0.1,0.7-0.4,0.7s-0.8,0-0.9-0.6
						c-0.1-1.2-0.4-2.3-1-3.3c-1.4-2.2-3.6-2.9-6.1-2.8c-1.2,0.1-2.5,0.1-3.7,0h-0.7c-0.6,0-0.8,0.2-0.8,0.8c0,1.1,0,2.3,0,3.4
						c0,8.3,0,16.7,0,25c0,0.9,0,1.8,0.1,2.7c-0.1,1.6,1.2,3,2.8,3.1c0.6,0.1,1.2,0.1,1.8,0.1c0.3,0,0.6,0,0.6,0.5s-0.2,0.6-0.6,0.6
						h-5.4c-3.3,0-6.6-0.1-9.9,0.1c-0.5,0-0.6-0.3-0.6-0.7s0.2-0.6,0.7-0.5c1.1,0.1,2.3-0.1,3.3-0.6c0.9-0.5,1.5-1.4,1.5-2.4
						c0.1-0.5,0.1-1.1,0.1-1.6C44.9,199.3,44.9,194.4,44.9,189.4L44.9,189.4z"/>
					<path class="st1" d="M66,86c-0.8,0.6-1.2,0.6-1.9-0.1c-0.1-0.1-0.2-0.3-0.4-0.4c-0.4-0.4-1-0.3-1.4,0.1
						c-0.1,0.1-0.2,0.3-0.2,0.5C62,86.4,62,86.7,62,87c0,0.6-0.1,1.1-0.8,1.1s-1.2-0.2-1.3-1c0-0.5-0.4-1-0.9-1.2
						c-0.4-0.2-0.9,0-1.2,0.4c-0.1,0.2-0.2,0.4-0.4,0.6c-0.4,0.7-0.8,0.8-1.4,0.5s-0.7-0.6-0.5-1.3c0.1-0.2,0.1-0.5,0.1-0.7
						c0-0.6-0.4-1.1-1-1.2c-0.2,0-0.4,0-0.5,0.1c-0.3,0.1-0.6,0.3-0.8,0.4c-0.5,0.3-1.1,0.1-1.4-0.4c-0.2-0.3-0.2-0.6,0-0.9
						c0.2-0.3,0.4-0.5,0.6-0.7c0.4-0.3,0.5-0.8,0.3-1.2c-0.1-0.5-0.6-0.8-1.1-0.8c-0.3,0-0.5,0-0.8,0c-0.5,0-0.8-0.1-0.9-0.6
						c-0.2-0.5,0.1-1,0.5-1.2c0.3-0.1,0.6-0.2,0.9-0.3c0.4,0,0.7-0.3,0.8-0.7c0.1-0.4,0-0.9-0.4-1.2c-0.2-0.2-0.5-0.3-0.7-0.4
						c-0.4-0.2-0.7-0.6-0.5-1.1c0,0,0-0.1,0-0.1c0.1-0.5,0.7-0.8,1.2-0.7c0.1,0,0.3,0.1,0.4,0.1c0.6,0.2,1.2,0,1.6-0.5
						c0.4-0.6,0.1-0.9-0.2-1.4c-0.6-1-0.4-1.6,0.5-1.8c0.6-0.2,1,0.2,1.4,0.6s0.6,0.6,1.2,0.4c0.8-0.3,1-0.6,0.9-1.4
						c-0.1-0.6,0-1.1,0.7-1.3s1-0.1,1.3,0.6c0.1,0.2,0.1,0.4,0.2,0.6c0.1,0.4,0.4,0.8,0.8,0.8c0.5,0.1,0.9-0.1,1.2-0.5
						c0.1-0.2,0.2-0.4,0.3-0.6c0.2-0.5,0.8-0.8,1.4-0.6c0.1,0,0.2,0.1,0.2,0.1c0.3,0.1,0.5,0.5,0.4,0.8c-0.1,0.3-0.1,0.7-0.2,1
						c-0.2,0.4-0.1,0.8,0.3,1.1c0.3,0.3,0.9,0.4,1.3,0.2l0.7-0.3c0.5-0.4,1.2-0.2,1.5,0.3c0.1,0.1,0.2,0.3,0.2,0.4
						c0.1,0.3,0,0.6-0.3,0.8c-0.5,0.4-1.1,0.8-0.9,1.6s1,0.8,1.7,0.8c0.7,0,1.2,0.5,1.2,1.1c0,0.1,0,0.3,0,0.4
						c0,0.2-0.2,0.3-0.4,0.4c-0.4,0.1-0.7,0.2-1.1,0.3c-0.4,0.1-0.7,0.4-0.8,0.8c-0.2,0.6-0.1,1,0.6,1.2c0.2,0.1,0.5,0.3,0.7,0.4
						c0.2,0.2,0.5,0.4,0.7,0.3c0.7-0.3,1.1,0.2,1.6,0.6s0.8,0.3,1.1-0.3c0.1-0.2,0.1-0.4,0.2-0.6c0.1-0.3,0.4-0.5,0.7-0.4
						c0.3,0,0.6,0.2,0.6,0.5v0.4c0,0.4,0.3,0.6,0.6,0.7s0.5-0.1,0.7-0.3s0.2-0.2,0.3-0.3c0.2-0.2,0.5-0.3,0.7-0.1
						c0.3,0.1,0.5,0.4,0.4,0.8c0,0.2-0.1,0.4-0.2,0.6c-0.2,0.8,0,1,0.8,0.8c0.2,0,0.4-0.1,0.6-0.1c0.4,0,0.6,0.2,0.8,0.5
						s-0.1,0.5-0.3,0.7c-0.2,0.1-0.3,0.2-0.4,0.4c-0.4,0.4-0.3,0.8,0.2,1c0.2,0.1,0.5,0.2,0.8,0.3c0.3,0.1,0.5,0.2,0.5,0.5
						c0,0.3-0.2,0.6-0.4,0.7c-0.3,0.1-0.6,0.1-0.8,0.2c-0.5,0.2-0.6,0.5-0.3,0.9c0.2,0.2,0.3,0.4,0.5,0.6c0.2,0.3,0.2,0.7-0.1,1
						c-0.2,0.3-0.5,0.2-0.8,0.1s-0.6-0.4-0.9-0.1c-0.4,0.2-0.5,0.7-0.3,1c0,0,0,0,0,0.1c0.2,0.3,0.1,0.8-0.2,1c0,0,0,0-0.1,0
						c-0.5,0.3-0.7,0-1-0.3c-0.6-0.8-1-0.7-1.4,0.2c-0.1,0.2-0.2,0.4-0.3,0.5c-0.2,0.3-0.5,0.4-0.8,0.2c-0.3,0-0.4-0.3-0.4-0.5
						c0,0,0,0,0-0.1c0.1-0.4-0.1-0.9-0.5-1c-0.5-0.2-0.7,0.2-0.9,0.5s-0.4,0.5-0.8,0.3c-0.4-0.1-0.6-0.4-0.5-0.8
						c0-0.1,0-0.2,0.1-0.2c0.2-0.4,0.4-0.8,0-1.2s-0.7-0.2-1.1,0s-0.7,0.1-0.8-0.3c-0.2-0.3-0.1-0.7,0.2-0.9l0.3-0.2
						c0.2-0.2,0.5-0.4,0.4-0.8s-0.4-0.4-0.7-0.5c-0.9-0.3-1-0.4-0.8-1.3c0.1,0,0.3,0,0.4,0c0.5,0.1,1-0.2,1.2-0.7
						c0.2-0.6-0.2-0.7-0.5-1s-0.4-0.4-0.3-0.6c0.1-0.3,0.3-0.5,0.5-0.6c0.3-0.1,0.6,0.1,0.8,0.2c0.3,0.2,0.7,0.1,0.9-0.3
						c0.1-0.1,0.1-0.2,0.1-0.3c0.1-0.4,0-0.8-0.2-1.1c-0.2,0.7-0.5,1.1-1.3,0.9c-0.2-0.1-0.5-0.2-0.7-0.2c-0.5-0.2-1.1,0-1.3,0.5
						c-0.1,0.1-0.1,0.2-0.1,0.4c-0.1,0.5,0.1,0.9,0.4,1.3C66.3,85.1,66.4,85.6,66,86C66,86,66,86,66,86"/>
					<path class="st1" d="M61.8,126.6c-0.3,0.1-0.6,0.1-0.9-0.1l-6.8-3.1c-2.5-1.2-5.4-1-7.7,0.5c-1.4,1-3.3,1.2-4.9,0.6
						c-2-0.7-3-2.9-2.4-4.9c0.1-0.3,0.3-0.7,0.5-1c0.8-1.1,1.9-1.9,3.2-2.4c2.3-1,4.7-1.6,7.1-2c1.9-0.2,3.7,0.7,4.7,2.4
						c2.1,3,4.3,6,6.4,9.1C61.2,126.1,61.5,126.4,61.8,126.6"/>
					<path class="st1" d="M6.1,88.4c1-0.3,2.1-0.4,3.2-0.4h2.1c0.4,0,0.5-0.2,0.5-0.6c0.1-0.7-0.3-1.3-1-1.4c-0.1,0-0.2,0-0.3,0
						c-1.5-0.1-3-0.3-4.4-0.7c-2.4-0.8-4.3-2.6-5.4-4.9c1.6,0.3,3.2,0.6,4.7,1c0.9,0.2,1,0.2,1.1-0.7c0.4-2.2,0.9-4.3,1.5-6.4
						c0-0.2,0.1-0.3,0.2-0.6L11,84.3h0.2c-0.1-1.6-0.3-3.1-0.4-4.8c1.2,0.9,2.2,2.1,2.8,3.4c0.7,1.5,1.3,3,1.7,4.5
						c0.2,0.8,0.5,1.5,0.8,2.2c0.3,0.4,0.2,0.9-0.2,1.2c0,0-0.1,0.1-0.1,0.1c-1.3,0.9-2.9,1.2-4.4,0.7C9.3,91.1,7.5,89.9,6.1,88.4
						 M11.2,84.6C11.2,84.6,11.2,84.6,11.2,84.6c-0.1-0.1-0.1,0-0.1,0S11.1,84.7,11.2,84.6L11.2,84.6"/>
					<path class="st0" d="M89.4,219.8c0,1.7,0,3.4,0,5c0,0.6,0.4,1,1,1.1c0.3,0.1,0.6,0.2,0.8,0.3h-6c0.3-0.3,0.6-0.3,0.9-0.4
						c0.9-0.3,1.1-0.6,1.1-1.5c0-3.2,0-6.4,0-9.6c0.1-0.9-0.4-1.8-1.3-2.1c-0.3-0.1-0.6-0.3-0.9-0.4c0.4-0.1,0.7-0.1,1.1,0
						c1.5-0.1,2.9-0.1,4.4-0.1c1,0,2,0.1,3,0.4c1.8,0.4,3,2.1,2.8,3.9c-0.1,1.8-1.4,3.2-3.2,3.5C91.9,220.3,90.7,220.3,89.4,219.8
						 M89.5,216.2L89.5,216.2c0,0.7,0,1.5,0,2.2s0.3,1,0.9,1c2.3,0,3.6-1.1,3.4-3.4c-0.1-1.7-1.6-2.9-3.2-2.8c-0.1,0-0.2,0-0.4,0.1
						c-0.4,0-0.7,0.4-0.7,0.8c0,0,0,0,0,0.1C89.5,214.8,89.5,215.6,89.5,216.2"/>
					<path class="st0" d="M41.3,226.3c1.8-0.3,2-1.5,1.9-3c-0.1-2.7-0.1-5.3,0-8c0.2-1.2-0.5-2.4-1.7-2.7c-0.1,0-0.2-0.1-0.3-0.2
						c0.2-0.1,0.4-0.1,0.6-0.1c3.2,0,6.4,0,9.7,0c0.7,0,0.8,0.2,0.8,0.8c0,0.8,0,1.7,0,2.7c-0.3-0.6-0.6-1-0.9-1.5
						c-0.4-0.7-1.2-1.2-2-1.1c-1,0-2,0-3,0c-0.8,0-1.1,0.2-1.1,1c-0.1,1.1-0.2,2.3-0.2,3.4c-0.1,0.5,0.3,1.1,0.8,1.2
						c0.1,0,0.2,0,0.4,0c1,0,2-0.1,2.9-0.1c0.5,0,0.9-0.3,1-0.7c0.2-0.4,0.4-0.8,0.7-1.3v5c-0.4-0.1-0.3-0.4-0.4-0.7
						c-0.2-0.9-0.9-1.5-1.8-1.4c-0.9-0.1-1.8-0.1-2.7,0c-0.4,0-0.7,0.3-0.7,0.7c-0.1,1.5-0.2,3.1-0.1,4.6c0,0.5,0.4,0.9,0.8,0.9
						c0,0,0,0,0,0c1.1,0,2.2,0.1,3.4,0c1.3-0.1,2.4-0.8,3-2c0.1-0.1,0.1-0.2,0.2-0.3c0.1-0.2,0.2-0.5,0.5-0.4s0.1,0.4,0,0.6
						c-0.2,0.9-0.5,1.8-0.9,2.6c-0.1,0.2-0.2,0.3-0.4,0.3H41.4L41.3,226.3z"/>
					<path class="st0" d="M74,226.4c0.1-0.5,0.5-0.4,0.8-0.5c0.9-0.2,1.1-0.4,1.2-1.4c0.4-2.5-0.3-5-1.9-6.9
						c-0.7-0.9-1.3-1.9-1.9-2.9c-0.6-1.1-1.4-1.9-2.5-2.4h6c0,0.4-0.4,0.4-0.7,0.4c-0.8,0.2-1.1,0.7-0.6,1.4
						c1.1,1.7,2.2,3.4,3.3,5.2c0.4-0.6,0.7-1.1,1.1-1.6c0.7-1.1,1.4-2.1,2-3.2c0.5-0.9,0.4-1.2-0.5-1.7l-0.8-0.5h5
						c-1.8,0.7-2.6,2.3-3.5,3.8c-0.4,0.7-0.8,1.3-1.3,1.8c-1.1,1.3-1.6,3-1.5,4.6c0,0.7,0,1.5,0.1,2.2c-0.1,0.6,0.4,1.1,0.9,1.1
						c0.1,0,0.1,0,0.2,0c0.3,0,0.6,0,0.7,0.4L74,226.4z"/>
					<path class="st0" d="M106.3,226.4c-1.8,0-3.6,0-5.3,0c-0.1,0-0.4,0.1-0.4-0.1s0.2-0.2,0.4-0.3l0.6-0.1c0.6-0.1,1.1-0.7,1-1.3
						c0-2.2,0-4.3,0-6.5c0-1.3,0-2.6,0-4c0-0.6-0.2-0.9-0.8-0.8s-1.1,0-1.7,0c-0.9,0-1.6,0.6-1.8,1.5c-0.1,0.4-0.3,0.7-0.6,1
						c0-1.1,0-2.2,0-3.2c0-0.3,0.3-0.3,0.5-0.3h10c1.1,0,1,0,1.2,1c0.2,0.8,0.1,1.7-0.1,2.4c-0.2-0.4-0.3-0.8-0.4-1.1
						c-0.3-0.9-1.1-1.4-2-1.4c-0.6,0-1.2,0-1.7,0c-0.4,0-0.5,0.1-0.5,0.5v11c0,0.6,0.4,1.1,1,1.3c0.2,0.1,0.5,0.2,0.8,0.3v0.1"/>
					<path class="st1" d="M44.3,8.6C43.8,8.7,44,8.3,44,8.1c0.5-1.8,1.6-3.3,3.1-4.4c2.1-1.5,4.4-2.6,6.9-3.3
						c0.2-0.1,0.5-0.2,0.8-0.2c0.3,0,0.6-0.3,0.8-0.1s0,0.5-0.1,0.8c-0.5,1.4-1.3,2.6-2.4,3.6C50.6,6.8,47.6,8.2,44.3,8.6"/>
					<path class="st0" d="M11.1,218.6c5.4-0.1,10.9-0.2,16.4-0.3c3.4-0.1,6.7-0.1,10-0.1c0.8,0,1.6,0,2.3,0c0.5-0.1,0.8,0.2,0.8,0.7
						s0,0.9-0.7,0.9c-2.8-0.1-5.6-0.2-8.4-0.2c-2.3-0.1-4.6-0.1-6.9-0.1l-15.7-0.3c-0.8,0-1.7-0.1-2.5-0.2c-0.1,0-0.4,0.1-0.4-0.2
						s0.3-0.2,0.4-0.2L11.1,218.6L11.1,218.6z"/>
					<path class="st0" d="M145.5,218.6c-1.8,0.4-3.6,0.6-5.5,0.5c-3.5,0.1-7,0.1-10.5,0.1c-4.9,0.1-9.8,0.2-14.7,0.3
						c-0.9,0-1.7,0-2.6,0.1c-0.5,0-0.7-0.3-0.8-0.7s0.1-0.8,0.6-0.8c0.2,0,0.3,0,0.5,0c3.9,0,7.8,0.1,11.7,0.1
						c3.7,0.1,7.4,0.1,11,0.3C138.6,218.7,142,218.5,145.5,218.6"/>
					<path class="st1" d="M0,72c2.1,2,3.8,4,5.7,6c-1,0.1-1.9,0.1-2.9-0.1c-0.9-0.2-1.7-0.9-2-1.7C0.4,74.8,0.1,73.4,0,72"/>
					<path class="st2" d="M39.9,10.5c0,0.1-0.1,0.1-0.1,0.1s0-0.1,0-0.1L39.9,10.5"/>
					<path class="st2" d="M19.5,40.2L19.5,40.2C19.4,40.3,19.4,40.2,19.5,40.2L19.5,40.2L19.5,40.2z"/>
					<path class="st2" d="M11.2,84.6L11.2,84.6c-0.1,0.1-0.1,0-0.1,0S11.1,84.5,11.2,84.6C11.2,84.5,11.2,84.6,11.2,84.6"/>
					<path class="st1" d="M62.2,31c1.5,0,3,0.1,4.5,0.3c1.4,0.2,1.8,0.9,1.2,2.2c-0.9,1.8-1,3.8-0.4,5.6c0.8,2.9,2.1,5.6,3.2,8.4
						c0.8,2.2,1.7,4.5,2.6,6.7c0.3,0.7,0.4,1.5,0.5,2.3c0.1,1.5-1.1,2.7-2.6,2.8c-2.3,0.2-4.7,0.3-7,0.2c-2.9,0-5.8,0-8.7,0
						c-0.8,0-1.6,0-2.4-0.1c-2.2-0.2-3.2-1.6-2.5-3.7c0.8-2.5,1.7-5,2.6-7.5c1.1-3.2,2.3-6.3,3.3-9.5c0.5-1.5,0.4-3.2-0.2-4.7
						c-0.8-1.7-0.3-2.4,1.5-2.6C59.3,31.1,60.8,31,62.2,31 M55.5,46.9c0.9,0.1,1.8,0.1,2.7,0.1c1.9-0.1,3.7-0.3,5.6-0.2
						c3.2,0.1,4.9,1.5,5.8,4.6c0,0.3,0.2,0.6,0.4,0.9c0.2,0.2,0.4,0.4,0.7,0.3s0.1-0.4,0-0.7c-0.3-0.8-0.5-1.7-0.8-2.5
						c-0.9-2.6-2.2-5.1-3.2-7.7c-1.1-2.6-1.5-5.5-1-8.3c0.1-0.3,0-0.6-0.3-0.7c-0.1,0-0.2,0-0.3,0h-5.7c0.1,0.2,0.3,0.2,0.4,0.2
						l2.6,0.4c0.2,0,0.6-0.1,0.6,0.4s-0.2,0.7-0.6,0.7c-0.4,0.1-0.7,0.1-1.1,0.1c-1.2-0.2-2.3,0.6-2.5,1.8c0,0,0,0.1,0,0.1
						C57.8,39.8,56.7,43.3,55.5,46.9"/>
				</g>
			</g>
		</g>
	</g>
</g>
</svg>
